<svg xmlns="http://www.w3.org/2000/svg" width="120" height="40" viewBox="0 0 120 40"><rect width="100%" height="100%" fill="#DDDDDD"/><path fill="#999999" d="M36.2 23.285h5.78v2.22h-8.47v-14.46h2.69zm11.85-8.2q1.14 0 2.08.37.93.37 1.6 1.05.66.68 1.02 1.66t.36 2.19q0 1.22-.36 2.2t-1.02 1.67q-.67.69-1.6 1.06-.94.37-2.08.37-1.15 0-2.09-.37t-1.6-1.06q-.67-.69-1.03-1.67-.37-.98-.37-2.2 0-1.21.37-2.19.36-.98 1.03-1.66.66-.68 1.6-1.05t2.09-.37m0 8.67q1.28 0 1.9-.86.61-.86.61-2.52t-.61-2.53q-.62-.87-1.9-.87-1.3 0-1.92.87-.63.88-.63 2.53t.63 2.51q.62.87 1.92.87m10.7-3.63q.46 0 .8-.12.34-.13.57-.35.22-.22.34-.53.11-.31.11-.68 0-.76-.45-1.21-.46-.44-1.37-.44t-1.36.44q-.46.45-.46 1.21 0 .36.12.67.11.31.34.53.22.23.57.36.34.12.79.12m2.79 5.84q0-.3-.18-.49t-.49-.3q-.31-.1-.72-.15-.42-.05-.88-.08l-.96-.04q-.5-.02-.97-.08-.41.23-.66.54-.26.31-.26.72 0 .27.14.5.13.24.43.41.29.17.76.27.47.09 1.15.09.69 0 1.19-.1.5-.11.83-.29.32-.19.47-.44.15-.26.15-.56m-.49-10.37H64v.92q0 .44-.53.54l-.92.17q.21.53.21 1.16 0 .76-.3 1.37-.31.62-.85 1.05t-1.27.66q-.74.24-1.59.24-.3 0-.58-.03t-.55-.08q-.48.29-.48.65 0 .31.29.45.28.15.75.21t1.07.08q.6.01 1.23.06t1.23.17q.6.13 1.07.4t.76.73q.28.47.28 1.2 0 .68-.33 1.32-.34.64-.97 1.14-.64.5-1.56.81-.93.3-2.11.3-1.16 0-2.02-.22-.86-.23-1.43-.6-.57-.38-.85-.87t-.28-1.02q0-.72.44-1.2.43-.49 1.19-.78-.41-.21-.65-.56t-.24-.92q0-.23.09-.48.08-.24.25-.48.16-.24.41-.46.25-.21.59-.38-.78-.42-1.22-1.12-.45-.7-.45-1.64 0-.76.31-1.38.3-.61.85-1.04.54-.44 1.29-.67.74-.23 1.62-.23.66 0 1.24.14.58.13 1.06.39m9.05-.51q1.14 0 2.08.37.93.37 1.6 1.05.66.68 1.02 1.66t.36 2.19q0 1.22-.36 2.2t-1.02 1.67q-.67.69-1.6 1.06-.94.37-2.08.37-1.15 0-2.09-.37t-1.6-1.06q-.67-.69-1.03-1.67-.37-.98-.37-2.2 0-1.21.37-2.19.36-.98 1.03-1.66.66-.68 1.6-1.05t2.09-.37m0 8.67q1.28 0 1.9-.86.61-.86.61-2.52t-.61-2.53q-.62-.87-1.9-.87-1.3 0-1.92.87-.63.88-.63 2.53t.63 2.51q.62.87 1.92.87m8.11-8.45-1.3-.23q.15-1.04.58-1.83.43-.78 1.08-1.3.64-.53 1.48-.8.83-.26 1.79-.26 1 0 1.81.28.81.29 1.37.8.57.5.88 1.18t.31 1.47q0 .69-.16 1.21-.15.53-.45.92-.29.39-.72.66-.42.27-.97.45 1.31.41 1.94 1.25.64.84.64 2.11 0 1.08-.4 1.91t-1.08 1.4q-.68.56-1.57.85t-1.89.29q-1.09 0-1.91-.25-.81-.25-1.41-.74t-1.02-1.2q-.41-.71-.72-1.64l1.09-.45q.43-.18.81-.09.37.08.55.4.18.35.39.69.22.34.51.6.31.27.71.44.41.16.96.16.64 0 1.11-.21.46-.2.78-.53.31-.33.47-.74.15-.4.15-.81 0-.52-.11-.95-.11-.42-.45-.72-.36-.3-1.01-.47t-1.76-.17v-1.76q.91-.01 1.52-.17.59-.16.95-.44.35-.29.49-.69.15-.4.15-.88 0-1.02-.58-1.55-.57-.53-1.51-.53-.45 0-.81.12-.37.13-.67.36-.29.22-.5.52-.2.3-.29.66-.18.46-.45.61-.28.15-.78.07"/></svg>